<svg width="430" height="418" viewBox="0 0 430 418" fill="none" xmlns="http://www.w3.org/2000/svg">
<g clip-path="url(#clip0)">
<path d="M48.6085 175.117H76.3848V314.039H48.6085V175.117Z" fill="#08A652"/>
<path fill-rule="evenodd" clip-rule="evenodd" d="M215.057 0.0390625L13.8881 96.9264V147.332H430.533V96.659L215.057 0.0390625ZM402.756 119.548H41.6644V114.385L215.475 30.6747L402.756 114.653V119.548ZM41.6644 341.822H402.756V369.607H41.6644V341.822ZM430.533 390.445H13.8881V418.229H430.533V390.445ZM368.036 175.117H395.812V314.038H368.036V175.117ZM312.483 175.117H284.707V314.038H312.483V175.117ZM131.937 175.117H159.714V314.038H131.937V175.117ZM236.098 175.117H208.322V314.038H236.098V175.117Z" fill="#08A652"/>
</g>
<defs>
<clipPath id="clip0">
<rect width="430" height="418" fill="white"/>
</clipPath>
</defs>
</svg>
