<svg width="255" height="82" viewBox="0 0 255 82" fill="none" xmlns="http://www.w3.org/2000/svg">
<path d="M97.8305 13.4028C97.2807 13.4556 96.8779 13.9441 96.9306 14.4938C96.9834 15.0436 97.4719 15.4465 98.0216 15.3937L97.8305 13.4028ZM129.323 7.73258C129.875 7.7463 130.334 7.30983 130.347 6.75772C130.361 6.2056 129.925 5.74691 129.372 5.7332L129.323 7.73258ZM251.264 36.9538C251.416 41.1959 248.456 45.5845 242.382 49.8818C236.349 54.1506 227.475 58.1564 216.368 61.6666C194.168 68.6826 163.274 73.6491 128.956 74.8775L129.027 76.8762C163.473 75.6433 194.555 70.658 216.971 63.5736C228.172 60.0337 237.265 55.9522 243.537 51.5144C249.769 47.1051 253.452 42.1676 253.263 36.8822L251.264 36.9538ZM128.956 74.8775C94.6379 76.1059 63.4672 73.3609 40.8227 67.95C29.4934 65.2429 20.3556 61.8818 14.0327 58.0553C7.66753 54.2032 4.40106 50.0375 4.24921 45.7954L2.25049 45.8669C2.43968 51.1523 6.46603 55.8138 12.9972 59.7663C19.5705 63.7444 28.9325 67.1652 40.3579 69.8953C63.223 75.3588 94.5821 78.1091 129.027 76.8762L128.956 74.8775ZM98.0216 15.3937C131.665 12.1638 170.002 13.0288 199.994 17.0757C214.997 19.1 227.859 21.9139 236.988 25.3847C241.557 27.1218 245.133 29.0021 247.57 30.989C250.012 32.9797 251.193 34.9767 251.264 36.9538L253.263 36.8822C253.163 34.0956 251.501 31.6137 248.834 29.4389C246.162 27.2603 242.363 25.2885 237.699 23.5153C228.363 19.9657 215.328 17.1266 200.261 15.0937C170.114 11.0259 131.624 10.1586 97.8305 13.4028L98.0216 15.3937ZM4.24921 45.7954C4.1885 44.0991 5.02226 42.164 6.88115 40.0263C8.7308 37.8991 11.5075 35.6754 15.1 33.4293C22.2799 28.94 32.5534 24.4622 44.6944 20.5269C68.9717 12.6579 100.53 7.01756 129.323 7.73258L129.372 5.7332C100.32 5.01172 68.5352 10.6969 44.0777 18.6243C31.8513 22.5873 21.4096 27.1254 14.0396 31.7335C10.3572 34.0359 7.40032 36.3812 5.37193 38.7139C3.35278 41.0359 2.16403 43.4514 2.25049 45.8669L4.24921 45.7954Z" fill="#08A652"/>
</svg>
