<svg width="57" height="48" viewBox="0 0 57 48" fill="none" xmlns="http://www.w3.org/2000/svg">
<g clip-path="url(#clip0)">
<path fill-rule="evenodd" clip-rule="evenodd" d="M33.4271 6.63728C33.4464 6.61789 33.4658 6.5985 33.4851 6.5791L33.4271 6.63728Z" fill="black"/>
<path fill-rule="evenodd" clip-rule="evenodd" d="M-0.193237 44.6788H1.3477V0.208452H-0.193237V44.6788ZM2.9321 22.2109C3.01905 22.1285 3.06736 22.0606 3.13015 21.9636C3.19295 21.6485 3.29922 21.3721 3.42481 21.0666C3.59388 20.7563 3.7726 20.48 3.98031 20.1891L4.47304 19.5976V0.208452H2.92727V22.2109H2.9321ZM7.56456 16.6836C7.08634 17.0909 6.58879 17.4933 6.13955 17.92V0.208452H7.56456V16.6836ZM9.62236 2.84603C9.67066 2.73451 9.70447 2.61331 9.76243 2.50179C9.96048 2.44846 10.1682 2.43876 10.3759 2.38543C10.603 2.38543 10.8203 2.34664 11.0473 2.34664V0.203613H9.62236V2.84603ZM14.6896 3.02058C14.2307 2.82664 13.7524 2.67633 13.2646 2.58421V0.213305H14.6896V3.02058ZM15.5977 1.89573C15.6122 1.88118 15.6363 1.86664 15.6363 1.83755C15.675 1.79876 15.9262 1.81815 15.9938 1.81815C16.5686 1.81815 17.1386 1.79875 17.7135 1.79875V0.208452H15.5977V1.89573ZM21.2977 1.55149L20.9789 1.64845C20.3606 1.72118 19.7519 1.75028 19.1385 1.77937V0.208452H21.2929V1.55149H21.2977ZM23.6695 1.36239C23.1912 1.31391 22.7227 1.25573 22.2445 1.30421V0.208452H23.6695V1.36239ZM25.4133 2.04603C25.5823 2.17694 25.7321 2.30299 25.8673 2.46299C25.9495 2.55996 25.9978 2.66178 26.0654 2.76845L26.4035 2.65209C26.6016 2.62785 26.7948 2.623 26.9977 2.65209L27.273 2.72967V0.203613H25.4133V2.04603ZM28.9347 3.22906C29.2246 3.33573 29.524 3.47633 29.7656 3.66542L30.0216 3.87391H30.3597V0.208452H28.9347V3.22906ZM34.712 6.10421C34.654 6.07512 34.5961 6.08481 34.5333 6.08481C34.2434 6.01209 33.944 5.94421 33.6638 5.85693L33.4271 5.66785C33.3498 5.49331 33.2822 5.31391 33.1711 5.15391V0.208452H34.7168V6.10421H34.712ZM37.2867 7.97573C36.7505 7.51028 36.2046 7.05452 35.6443 6.623V0.213305H37.2867V7.97573ZM40.0932 9.66785C40.5521 9.92482 40.982 10.206 41.3974 10.526L41.7742 10.8509H41.8129V0.208452H40.0932V9.66785ZM43.4214 12.7369C43.6678 13.0085 43.8948 13.28 44.0735 13.5951C44.4841 14.3079 44.6097 15.1563 44.6677 15.9563C44.7546 16.1794 44.8754 16.3733 44.9865 16.5866V0.208452H43.4214V12.7369ZM46.5661 41.7066H48.0877V0.213305H46.5661V41.7066Z" fill="black"/>
<path fill-rule="evenodd" clip-rule="evenodd" d="M9.62238 13.595L10.1586 12.281C10.3228 11.961 10.4919 11.6556 10.6947 11.3453L10.9508 11.001C10.9749 10.9526 11.0087 10.9477 11.0522 10.9041V7.74285C10.6803 7.38407 10.3421 7.01557 10.0426 6.5986L9.74314 6.10406L9.6272 5.8374V13.595H9.62238Z" fill="black"/>
<path fill-rule="evenodd" clip-rule="evenodd" d="M2.93213 27.3164L3.27026 27.6994C3.6422 28.0582 4.03831 28.3637 4.47788 28.6352V44.6837H2.93213V27.3164Z" fill="black"/>
<path fill-rule="evenodd" clip-rule="evenodd" d="M6.13959 29.144L6.69509 29.241C6.98492 29.2701 7.27476 29.3428 7.56459 29.3768V39.4956H6.13959V29.144Z" fill="black"/>
<path fill-rule="evenodd" clip-rule="evenodd" d="M11.0474 27.4717L10.772 27.7771C10.5595 28.1893 10.3952 28.6208 10.1972 29.0329C10.0136 29.1347 9.82043 29.2074 9.62238 29.2608V39.4959H11.0474V27.4717Z" fill="black"/>
<path fill-rule="evenodd" clip-rule="evenodd" d="M14.6848 26.3999C14.2645 26.4581 13.8443 26.5066 13.4385 26.589C13.3612 26.589 13.3274 26.5938 13.2598 26.6278V39.4908H14.6848V26.3999Z" fill="black"/>
<path fill-rule="evenodd" clip-rule="evenodd" d="M17.7135 25.0669C17.472 25.0863 17.2353 25.1057 17.0034 25.1057C16.5735 25.4839 16.1194 25.8863 15.5977 26.1336V39.4184H17.7135V25.0669Z" fill="black"/>
<path fill-rule="evenodd" clip-rule="evenodd" d="M21.2977 23.8496H20.1722L19.9742 24.1551C19.8099 24.3393 19.6602 24.4751 19.4573 24.6108L19.1433 24.7611V39.4908H21.2977V23.8496Z" fill="black"/>
<path fill-rule="evenodd" clip-rule="evenodd" d="M22.2445 24.3638C22.5247 24.7226 22.7614 25.1056 23.0367 25.4692L23.4328 25.8135L23.6695 25.9298V39.5007H22.2445V24.3638Z" fill="black"/>
<path fill-rule="evenodd" clip-rule="evenodd" d="M27.2731 31.6997C27.2537 31.6803 27.2393 31.6609 27.2151 31.6609L26.761 31.0694C26.5243 30.7251 26.2876 30.3857 26.0509 30.0415C25.8336 29.6779 25.621 29.3094 25.4182 28.936V39.4185H27.2779V31.6997H27.2731Z" fill="black"/>
<path fill-rule="evenodd" clip-rule="evenodd" d="M28.9348 33.5273C29.2246 33.8376 29.5144 34.1479 29.8043 34.4631C29.9926 34.6473 30.181 34.8267 30.3598 35.0158V39.4958H28.9348V33.5273Z" fill="black"/>
<path fill-rule="evenodd" clip-rule="evenodd" d="M34.7121 38.807C34.6299 38.9621 34.5623 39.127 34.4947 39.2821C34.0599 38.8118 33.6059 38.3609 33.1711 37.8906V39.4906H34.7169V38.807H34.7121Z" fill="black"/>
<path fill-rule="evenodd" clip-rule="evenodd" d="M37.2867 32.3105C37.2432 32.3736 37.2094 32.4172 37.1901 32.4802C36.7602 33.1008 36.4945 33.8039 36.1999 34.4827C36.0018 35.0499 35.8134 35.6269 35.6443 36.199V39.496H37.2867V32.3105Z" fill="black"/>
<path fill-rule="evenodd" clip-rule="evenodd" d="M41.8177 23.772C41.6196 24.1211 41.4409 24.4799 41.2429 24.8192C40.8516 25.4738 40.4458 26.1283 40.0932 26.8023V39.4956H41.8129V23.772H41.8177Z" fill="black"/>
<path fill-rule="evenodd" clip-rule="evenodd" d="M43.4214 22.1723L43.7402 21.9832L43.9963 21.7941L44.4117 21.3772C44.6194 21.0766 44.8078 20.7663 44.9865 20.4414V41.7117H43.4214V22.1723Z" fill="black"/>
<path fill-rule="evenodd" clip-rule="evenodd" d="M15.3997 4.42667H15.303L15.0277 4.57697C14.7089 4.52364 14.4674 4.31515 14.1969 4.15999C13.9215 4.07272 13.6414 4 13.366 3.91273C13.1873 3.89334 13.0086 3.85455 12.8298 3.83515H12.511C11.8734 3.90788 11.1488 4.21334 11.0087 4.88243C10.7962 5.39152 11.0377 5.72607 11.2841 6.15758C11.5932 6.52122 11.9265 6.85576 12.2743 7.18546C12.4482 7.33091 12.627 7.46667 12.7912 7.62182C13.0086 7.78667 13.2066 7.95152 13.3853 8.15515C13.5882 8.42667 13.7525 8.70303 14.0375 8.89697L14.1775 8.95515L14.2548 8.93575C14.3466 8.82909 14.4239 8.71273 14.5302 8.61091C14.5978 8.58182 14.6896 8.61575 14.7669 8.6303L14.8442 8.61091L14.9021 8.51394L14.9601 8.22788C15.2113 8.06303 15.5687 8.03394 15.8682 7.9806H16.245C16.4237 8.01454 16.5541 8.05333 16.7184 8.1309L16.8971 8.32C16.9889 8.52849 17.0952 8.72727 17.1338 8.9503C17.1338 9.18303 17.0662 9.39152 16.9358 9.58061C16.7522 9.76 16.5107 9.83273 16.2643 9.86667L15.9697 10.017C15.931 10.1721 15.9745 10.3515 16.0469 10.4921C16.0808 10.6133 16.0952 10.6182 16.2063 10.6812C16.3851 10.7248 16.4962 10.783 16.6411 10.6424C16.6797 10.5649 16.6991 10.5067 16.7184 10.4146C16.7184 10.2255 16.786 10.0848 16.9164 9.93939L17.2111 9.76969H17.3898C17.7328 9.86181 17.9791 10.0703 18.2207 10.303C18.4236 10.56 18.0613 10.9964 17.9647 11.2388C17.8101 11.4861 17.8052 11.7915 17.4285 11.7333C17.1435 11.5927 16.9551 11.3309 16.6556 11.2388L16.2208 11.1612C16.0083 11.1612 15.7958 11.1418 15.588 11.1418C15.3369 11.1418 15.1098 11.1127 14.8731 11.0448C14.7524 10.9285 14.6268 10.7733 14.4577 10.72C14.2935 10.72 14.1775 10.7685 14.0423 10.8364C13.8684 10.88 13.8732 10.9479 13.8442 11.103C13.8442 11.4327 13.8829 11.777 13.965 12.0921C14.0616 12.2521 14.1437 12.3976 14.3031 12.5091C14.5833 12.6691 14.9552 12.6594 15.2741 12.6594C15.4335 12.6303 15.5929 12.6255 15.7475 12.5624C15.8199 12.4897 15.8875 12.4073 15.9648 12.3345H16.0228C16.2547 12.7806 16.3851 13.2752 16.2402 13.7649C16.1242 14.0267 15.9455 14.2497 15.6653 14.337L15.3707 14.2982L15.192 14.2012L14.9166 13.9152C14.7475 13.697 14.6123 13.5224 14.3804 13.3624L14.2403 13.3236C14.0278 13.3818 13.8974 13.4594 13.8442 13.6679C13.8104 13.8424 13.7669 14.0121 13.7235 14.1818C13.5303 14.463 13.2308 14.6521 13.0134 14.9042C12.9361 14.9964 12.9168 14.9915 12.9554 15.0933C13.0231 15.2242 13.0327 15.3891 13.0327 15.5297L12.7574 15.8933C12.6366 16.0097 12.5593 16.0873 12.5014 16.2376L12.482 16.4655L12.5014 16.5818L12.482 16.7709C12.3951 16.9891 12.1584 17.1103 11.97 17.2267C11.627 17.3915 11.2841 17.5321 10.9025 17.5321L10.6464 17.5127C10.3953 17.6339 10.1682 17.7649 9.95567 17.9297C9.85423 17.9782 9.75762 18.0364 9.66101 18.08C9.49678 18.1042 9.32771 18.1285 9.16831 18.1576L8.98957 18.2351L8.95093 18.2933L8.98957 18.4097L9.12965 18.5261L9.32771 18.623L9.48712 18.6618C9.60788 18.5842 9.62721 18.4679 9.74314 18.3952L9.84457 18.4339C9.93635 18.5406 10.0233 18.7006 10.1827 18.7006C10.2986 18.7006 10.4001 18.6618 10.5208 18.6618C10.9073 18.5697 11.2744 18.303 11.6077 18.0897C11.8734 17.8958 12.1825 17.7261 12.3613 17.44C12.4434 17.3576 12.5014 17.2655 12.5786 17.1733C12.6946 17.0327 12.8153 16.9842 12.9941 16.9261C13.2259 16.8291 13.4916 16.7273 13.6462 16.5236C13.709 16.4461 13.7621 16.3588 13.8249 16.2764C13.8636 16.1891 13.8781 16.097 13.9215 16.0097V15.7818C13.8877 15.5442 13.8201 15.3164 13.7814 15.0788L13.8201 14.943L13.8974 14.8461C14.1292 14.7345 14.3756 14.8945 14.5688 15.0158L14.7669 15.2242L14.9649 15.5685C15.076 15.8836 15.163 16.1891 15.163 16.5188C15.1823 16.6982 15.2064 16.7806 15.1243 16.9358L15.0857 17.1055C14.9263 17.4158 15.1243 17.9879 15.5011 18.0606H15.6798L15.8199 18.0218L15.8779 17.9248L15.8585 17.6C15.7909 17.343 15.7281 17.0812 15.6605 16.8194C15.6605 16.6642 15.675 16.5527 15.7185 16.4024C15.8006 16.223 15.902 16.0533 16.0131 15.8885C16.0711 15.743 16.1146 15.6024 16.1532 15.4521C16.1532 15.1273 16.1532 14.7927 16.1532 14.463L16.2112 14.2158C16.2595 13.9442 16.3223 13.5709 16.7039 13.6436C17.0324 13.7697 17.1966 14.0073 17.2401 14.3321L17.1386 14.8073L17.0179 15.1127C16.9261 15.3164 16.8778 15.5442 16.7425 15.7236C16.6797 15.8255 16.6459 15.8788 16.6218 15.9903C16.5058 16.4412 16.4527 16.9067 16.3851 17.3624C16.3416 17.6776 16.2885 18.0024 16.2885 18.3176C16.2643 18.4388 16.2547 18.56 16.2305 18.6812C16.2305 19.1467 16.3609 19.5685 16.5252 19.9951L16.7232 20.2812C16.8585 20.3588 16.9841 20.4509 17.1193 20.5285C17.3222 20.7903 17.3319 21.1491 17.356 21.4642C17.3753 21.7309 17.3753 22.0024 17.3947 22.2642L17.4913 22.7782L17.5686 22.9285L17.7086 23.0594L17.868 23.137L18.0275 23.1758L18.4042 23.0982C18.6119 22.9818 18.8535 22.8461 18.9404 22.6036C18.9839 22.4048 18.9694 22.1576 18.9211 21.9539C18.5781 21.3382 18.1869 20.7515 17.8342 20.1454C17.6797 19.8254 17.5492 19.5345 17.4575 19.1903C17.4575 18.9139 17.4188 18.6327 17.4188 18.3515C17.3947 18.1721 17.4092 18.1673 17.2401 18.0848C17.129 17.9976 17.0807 17.983 17.0807 17.8376C17.1048 17.6921 17.1338 17.5467 17.158 17.4012C17.1773 17.2897 17.2159 17.1927 17.2352 17.0764C17.4091 16.8048 17.583 16.5673 17.6893 16.257C17.6893 15.9467 17.67 15.6364 17.67 15.3212C17.6458 15.103 17.6652 14.8897 17.7086 14.6715L17.7859 14.5551L17.9067 14.4582L18.0275 14.4194C18.1917 14.4485 18.2835 14.4727 18.4236 14.5697L18.6216 14.7976C18.6651 14.9624 18.6361 15.1467 18.6216 15.3115C18.5685 15.6315 18.5202 15.9515 18.4429 16.2667C18.3849 16.4751 18.3608 16.6836 18.2255 16.8582C18.1337 16.9794 18.0178 17.0812 17.9067 17.183C17.8487 17.3236 17.8391 17.4158 17.8294 17.5661L17.7714 17.9685C17.7714 18.1721 17.7714 18.3806 17.7714 18.5794C17.8053 18.7588 17.8294 18.943 17.8922 19.1127C17.9936 19.2097 18.0951 19.3115 18.211 19.3988C18.3656 19.5006 18.4912 19.6218 18.6071 19.7624L18.6844 20.0485C18.6844 20.3539 18.6747 20.6497 18.7617 20.9455C19.0177 21.2897 19.2689 21.5903 19.6698 21.7842L19.8292 21.8618H19.9258L20.1625 21.6921C20.2785 21.4351 20.2447 21.183 20.2012 20.9115L20.2591 20.417C20.3364 20.32 20.4282 20.2764 20.5345 20.2085C20.6263 20.1358 20.7229 20.0824 20.8098 20C20.9113 19.8012 20.8678 19.4764 20.8485 19.2582C20.8002 18.943 20.7663 18.623 20.7084 18.303C20.7084 17.8327 20.7712 17.377 20.8678 16.9115L20.9258 16.32C20.9113 16.1406 20.9161 15.8642 20.805 15.7091C20.6842 15.6509 20.6359 15.6509 20.5103 15.6703L19.6988 16.1454C19.5925 16.4509 19.6505 16.7709 19.6795 17.0812C19.7278 17.4449 19.8002 17.8279 19.7374 18.1867C19.6747 18.3612 19.636 18.5454 19.5974 18.72C19.5974 18.9091 19.6698 18.9527 19.8147 19.0642C19.9403 19.1612 20.0756 19.2582 20.1915 19.3697C20.2543 19.5249 20.2302 19.617 20.1915 19.7721L20.0949 19.8885C19.9548 19.9321 19.9307 19.9418 19.8002 19.8885C19.4814 19.7673 19.3075 19.5782 19.3075 19.2388C19.3075 19.0109 19.3414 18.7685 19.2302 18.5503C19.1336 18.4242 19.0274 18.3321 18.9549 18.1867C18.7713 17.9249 18.8148 17.4933 18.8148 17.1782C18.8776 17.0376 18.9597 16.9018 19.0322 16.7564C19.2496 16.4655 19.438 16.16 19.6457 15.8594C19.7278 15.7236 19.7616 15.6606 19.7616 15.4958C19.7423 15.3648 19.7423 15.2339 19.723 15.0982C19.6747 14.9333 19.6263 14.7782 19.5442 14.623C19.3897 14.4776 19.2544 14.463 19.0515 14.4339C18.8003 14.3854 18.6554 14.3127 18.5347 14.0897L18.4767 14.0121C18.3608 13.5903 18.298 13.1539 18.298 12.7176L18.3366 12.4121L18.3946 12.2424L18.4719 12.1067L18.6313 12.0291L18.7713 12.0485L18.9887 12.2182C19.0708 12.4558 19.0177 12.7467 18.9501 12.9794C18.9259 13.1394 18.8921 13.2848 18.9308 13.4351L19.0902 13.6048L19.1868 13.6242L19.3075 13.5273C19.4235 13.3721 19.5249 13.2073 19.5636 13.0133C19.6457 12.7176 19.7036 12.4073 19.6408 12.097C19.5974 12 19.5394 11.9224 19.4814 11.8303C19.3703 11.7236 19.3124 11.6364 19.2834 11.4861L19.3027 11.3552L19.4428 11.1079L19.5442 11.0691C19.6553 11.1758 19.723 11.3018 19.8002 11.4327L19.8969 11.4909C20.1722 11.3309 20.3316 11.0158 20.4524 10.7297L20.491 10.2739C20.4572 10.0073 20.4814 9.77454 20.549 9.51272C20.7664 9.17818 21.09 8.95031 21.3798 8.67395L21.5006 8.50425L21.602 8.15999V7.81575C21.5634 7.62666 21.5199 7.43758 21.4813 7.24364L21.4426 6.8606L21.4813 6.57454C21.5586 6.37576 21.6214 6.16727 21.6986 5.96363L21.718 5.63879L21.66 5.52243L21.5392 5.42546L21.3798 5.36728L21.2397 5.38666C21.0562 5.47393 20.9837 5.64364 20.863 5.78909C20.8098 5.89091 20.7712 5.98788 20.7035 6.07515C20.549 6.27394 20.5441 6.46787 20.5441 6.70545C20.6214 6.82666 20.7084 6.88 20.8195 6.97212C20.9113 7.28243 20.8388 7.67031 20.7229 7.96122L20.6456 8.05818L20.549 8.07758C20.3896 8.01455 20.3026 7.97575 20.2108 7.8303C20.1287 7.47636 20.0756 7.12728 20.1336 6.76364C20.206 6.69091 20.3123 6.69092 20.3896 6.61334C20.4475 6.44364 20.4282 6.2594 20.4282 6.08C20.3751 5.87637 20.3461 5.28 19.9548 5.46909L19.7568 5.54667C19.6553 5.6194 19.5684 5.69698 19.5008 5.79395C19.2834 6.00728 19.124 6.32727 18.81 6.40484C18.2738 6.5309 17.8342 6.01697 17.5058 5.70182L16.9502 5.49333C16.8295 5.46908 16.6942 5.46424 16.5928 5.39637C16.3609 5.26061 16.1967 5.07637 16.018 4.88243C15.8682 4.73697 15.733 4.60606 15.5639 4.48485L15.3997 4.42667ZM8.15873 24.5139L7.97999 24.5721L7.82059 24.6885C7.695 24.8582 7.66118 24.9261 7.69983 25.1249C7.69983 25.2315 7.73847 25.3091 7.75779 25.4109C7.83025 25.5467 7.84957 25.5612 7.99448 25.6194C8.23601 25.7115 8.52585 25.7358 8.78669 25.697L8.92678 25.6194L9.1828 25.3527L9.22144 25.2218L9.14415 25.1055C8.95093 24.9891 8.74805 24.8873 8.55 24.7806C8.42441 24.6545 8.3278 24.5867 8.15873 24.5139ZM6.84965 24.1745L6.27482 24.3442C6.16855 24.2958 6.10093 24.2473 5.98017 24.2473C5.87873 24.32 5.79177 24.4073 5.70483 24.4945L5.66619 24.6109L5.72415 24.7612L5.84008 24.9115L6.88831 25.0812C7.05737 24.9842 7.17813 24.8921 7.24576 24.6982L7.20712 24.5285L6.98974 24.2424L6.84965 24.1745ZM6.77236 23.0497H6.59364C6.28932 22.977 5.99465 22.9915 5.6855 22.9915C5.59855 23.0109 5.51643 23.0109 5.42948 23.0303C5.28457 23.0788 5.23626 23.2291 5.17347 23.3552C5.12999 23.5588 5.25559 23.6994 5.37152 23.8497C5.65652 24.0145 6.00432 24.0194 6.32313 24.0194C6.92694 24.0194 7.56457 23.8933 8.16355 23.7915C8.27949 23.7188 8.3761 23.6121 8.4389 23.4861L8.38093 23.3358L8.26017 23.1855L8.12008 23.0739C7.88339 22.9964 7.66602 23.0061 7.42932 23.0352C7.20712 23.0303 6.98974 23.0497 6.77236 23.0497ZM6.37627 21.217L6.27966 21.2364L5.96084 21.4642C5.83525 21.7067 5.9077 21.8182 6.01881 22.0364C6.07194 22.1382 6.12024 22.1915 6.19753 22.2642C6.38109 22.3515 6.57432 22.4339 6.79169 22.4339C6.87864 22.4145 6.96076 22.3903 7.04771 22.3564C7.13466 22.2933 7.22161 22.2642 7.32305 22.2206C7.56457 22.1721 7.79643 22.1091 8.05728 22.1091C8.23601 22.2109 8.38093 22.3903 8.47271 22.5649C8.54517 22.6521 8.63694 22.7782 8.74804 22.8121C8.89779 22.8121 9.05236 22.8509 9.20211 22.8509L9.32287 22.8897C9.49194 23.0545 9.59822 23.2388 9.7383 23.423L9.95567 23.6703L10.2117 23.84C10.4242 23.84 10.6706 23.8448 10.8058 23.6509C10.8638 23.4327 10.7527 23.1418 10.5885 22.9818C10.5015 22.8315 10.4194 22.7248 10.2938 22.5988L9.48229 22.0461C9.18763 21.9782 8.88814 21.9588 8.59348 21.9152C8.40025 21.8521 8.3133 21.7939 8.19737 21.6291C8.10559 21.4933 8.01381 21.3285 7.87855 21.2267L7.80126 21.2073C7.41965 21.28 7.07668 21.3624 6.69507 21.3188L6.37627 21.217ZM8.79153 19.6364L8.63211 19.6751L8.49202 19.7527L8.39542 19.8691L8.35677 20C8.41474 20.2327 8.52101 20.3879 8.69491 20.5527C8.85915 20.577 9.02338 20.5721 9.18762 20.5915L9.26491 20.6691C9.26491 20.897 9.17314 21.0861 9.12483 21.2994C9.12483 21.5467 9.40499 21.5564 9.59821 21.5854C9.79143 21.5854 10.0619 21.5903 10.231 21.7018C10.3952 21.7794 10.5112 21.9152 10.6658 22.0073L10.8058 22.1382C11.0184 22.5067 11.1536 22.9042 11.3807 23.263C11.4821 23.3745 11.5836 23.4812 11.6995 23.5879L11.8396 23.6461C12.0038 23.6461 12.1391 23.6994 12.2743 23.5685C12.3275 23.36 12.2743 23.1321 12.2743 22.9188L12.2357 22.6909L12.1197 22.6133L11.7623 22.5164C11.6512 22.4097 11.6222 22.3855 11.6222 22.2303C11.598 22.1382 11.6029 22.0606 11.6029 21.9636C11.5497 21.8618 11.4966 21.76 11.4435 21.6582C11.2792 21.4497 11.115 21.2606 10.9073 21.0861C10.7527 20.9551 10.5547 20.7709 10.3518 20.7224C10.173 20.6933 9.99432 20.7079 9.81559 20.6836C9.6417 20.6545 9.54025 20.6691 9.47745 20.4945L9.45813 20.0194L9.37602 19.8836C9.20695 19.7576 9.01373 19.6364 8.79153 19.6364ZM14.8442 18.4727C14.7041 18.5067 14.6219 18.5745 14.5495 18.6812C14.5157 18.9333 14.4625 19.1758 14.4287 19.423V19.7091C14.4529 19.8497 14.4915 19.9612 14.5495 20.0921C14.7234 20.2958 14.8925 20.4849 15.0422 20.703C15.1581 21.1442 15.1775 21.6048 15.2209 22.0558C15.2886 22.3951 15.4045 22.7394 15.5156 23.0642L15.675 23.3697L15.9697 23.6558L16.187 23.6945C16.3464 23.6703 16.5541 23.6703 16.6025 23.4861L16.6411 22.8945C16.6411 22.2788 16.5638 21.6533 16.4431 21.0473C16.332 20.8339 16.1097 20.737 15.9697 20.5527L15.9117 20.2667C15.9117 20.0679 15.9262 19.8545 15.8924 19.6558C15.8586 19.4521 15.7523 19.2727 15.6363 19.103C15.4963 18.8751 15.332 18.6618 15.1002 18.5115L14.8442 18.4727ZM14.0761 24.1552L14.2162 24.1164L14.4529 23.9467C14.6026 23.743 14.7282 23.5394 14.8103 23.297L14.8876 22.8606C14.8876 22.2642 14.8152 21.6097 14.5302 21.0715C14.4287 20.9358 14.3563 20.7903 14.2548 20.6497C14.1775 20.4461 14.0906 20.2473 14.0181 20.0388C13.9505 19.7479 13.8732 19.4618 13.8394 19.1612C13.8249 19.0545 13.8201 18.943 13.8008 18.8364C13.8008 18.5552 14.023 18.5261 14.2548 18.4339C14.4625 18.3661 14.5592 18.3224 14.6316 18.1091C14.7379 17.8618 14.7089 17.5806 14.7089 17.3091C14.7089 17.1685 14.6992 17.0667 14.6509 16.9261C14.5108 16.5915 14.2935 16.6788 14.0181 16.737C13.8877 16.7709 13.8781 16.8242 13.8008 16.9261C13.6897 17.183 13.6027 17.4594 13.5447 17.7261L13.4868 17.8618L13.3853 17.9927L13.1486 18.1818C12.9023 18.2691 12.6463 18.3418 12.3951 18.4097C12.1825 18.5115 12.1197 18.6909 12.1197 18.9042C12.0811 19.0594 12.0473 19.0497 11.9024 19.0933C11.6222 19.0933 11.3469 19.0545 11.0715 19.0545C10.7914 19.1418 10.4532 19.3939 10.3373 19.6655C10.3759 19.8594 10.516 19.9515 10.6513 20.0873C11.057 20.4267 11.4676 20.7612 11.8009 21.1733C11.8879 21.2994 11.941 21.3479 11.941 21.4982V21.6873C11.8879 21.9491 11.9652 22.08 12.1391 22.2788L12.3951 22.4291C12.5738 22.4727 12.8008 22.5164 12.9506 22.3709L12.9892 22.0267C12.9892 21.6679 12.9603 21.3091 12.8685 20.96C12.7912 20.7709 12.6414 20.7079 12.453 20.6351L12.2743 20.5188C12.2164 20.4073 12.1729 20.3006 12.1342 20.1745C12.1149 20.0291 12.1149 19.8836 12.0956 19.7382C12.1149 19.5879 12.1342 19.4327 12.1536 19.2824L12.2115 19.2048L12.3709 19.1855L12.5303 19.2048L12.6463 19.2824C13.023 19.7867 13.2404 20.3297 13.4191 20.9212C13.4385 21.0521 13.4771 21.1733 13.4964 21.3042C13.4964 21.7794 13.4916 22.2449 13.4578 22.7152L13.5979 23.7042C13.7186 23.9467 13.7766 24.097 14.0761 24.1552ZM11.6802 12.5285L11.8203 12.5479C11.9941 12.6594 12.1632 12.8388 12.3758 12.8921C12.54 12.9309 12.7042 12.9455 12.8685 12.9891C12.9458 13.0618 12.9603 13.12 12.9892 13.217C12.9313 13.3867 12.7139 13.5176 12.5545 13.5806C12.4047 13.5806 12.2743 13.5564 12.1391 13.503C11.9748 13.4788 11.8154 13.4448 11.6657 13.3867L11.4869 13.2364C11.4386 13.0958 11.4386 13.0036 11.4676 12.8582C11.4966 12.6885 11.4869 12.5721 11.6802 12.5285ZM11.9941 15.1224C11.6705 15.0594 11.371 15.0739 11.086 15.2582C10.8928 15.3794 10.6947 15.4861 10.5498 15.6558C10.3808 15.8158 10.3904 16 10.3904 16.2085C10.4436 16.4655 10.5692 16.5624 10.8252 16.6448C11.0087 16.6933 11.1247 16.7127 11.3179 16.6836C11.8202 16.5236 12.4241 15.5297 11.9941 15.1224ZM32.6929 28.5915L32.4948 28.7273C32.3741 28.8679 32.2485 28.9891 32.1374 29.1297C32.0504 29.2315 31.978 29.3333 31.9007 29.4351C31.8234 29.6485 31.7075 29.8182 31.5819 30.0073C31.5287 30.1139 31.4756 30.2109 31.4224 30.3127C31.1906 30.4242 30.9684 30.5358 30.751 30.657C30.6254 30.7782 30.6303 30.7927 30.6303 30.9624C30.6641 31.2824 30.7365 31.6024 30.809 31.9176C30.8525 32.0242 30.8814 32.1455 30.9491 32.2424C31.2631 32.4121 31.5819 32.5818 31.9007 32.7564C31.9683 32.96 32.0456 33.1588 32.0794 33.3673C32.118 33.503 32.1374 33.6339 32.176 33.7649C32.2581 33.4642 32.3209 33.1685 32.3547 32.8485C32.3547 32.5527 32.3982 32.2521 32.3547 31.9515V31.7042C32.3113 31.4909 32.3644 31.36 32.4513 31.1709C32.6446 30.8897 32.8958 30.6521 33.1035 30.3709C33.2242 30.1382 33.345 29.9006 33.4802 29.663C33.6058 29.4448 33.7363 29.2558 33.7363 28.9939C33.7652 28.8 33.7894 28.6012 33.8136 28.4024C33.7991 28.32 33.7991 28.2376 33.7363 28.1745C33.3547 28.2473 33.0455 28.4558 32.6929 28.5915ZM42.6292 14.4146C42.6003 14.5746 42.5181 14.7103 42.4505 14.8509L42.0737 15.7285C42.0254 15.9903 42.0109 16.2521 41.9771 16.5091L41.6825 17.9588L41.523 18.4339L41.1849 18.9285L40.7695 19.3842C40.2333 19.8788 39.6826 20.3491 39.1271 20.8145L39.0305 20.9648C38.987 21.2024 38.8759 21.4303 38.7938 21.6533C38.5426 22.1818 38.2576 22.6861 38.0209 23.2145C37.8519 23.5927 37.6683 23.9564 37.5862 24.3588L37.5089 24.7952L37.3688 25.1588C37.0645 25.7164 36.7795 26.2836 36.48 26.8364L36.3399 27.2194L36.2433 27.6558C36.0984 27.9127 35.9245 28.1503 35.7699 28.3976L35.3931 28.9891L35.2724 29.2558C35.2482 29.3915 35.2144 29.5273 35.1951 29.6533C35.0502 29.9733 34.9632 30.303 34.9197 30.6424C34.9681 30.9236 35.1806 31.0642 35.3545 31.2727L35.4946 31.4618C35.4946 31.6315 35.4366 31.7818 35.398 31.937L35.3158 32.0339L35.1564 32.1503L34.9197 32.2473L34.9004 32.4752C34.7362 32.9164 34.5719 33.343 34.3836 33.7697C34.2338 34.0703 34.0792 34.3709 33.9295 34.6667C33.7894 34.7345 33.601 34.8121 33.4561 34.8364C33.3112 34.8945 33.2967 34.8703 33.1614 34.8364L32.7074 34.4194L32.9441 33.4303L33.2387 33.0667L33.8136 32.6109L33.8522 32.5527C33.9005 32.1067 33.9778 31.6655 34.0502 31.2194L34.0889 30.7636C34.1131 30.6909 34.1565 30.6133 34.1855 30.5358C34.2724 30.4242 34.3546 30.3127 34.3836 30.1721C34.4125 30.0509 34.4029 29.92 34.4029 29.7891C34.4029 29.6097 34.4029 29.4206 34.4029 29.2364C34.5333 29.1442 34.6879 29.0667 34.8376 28.9891L34.9149 28.8921C34.8569 28.7515 34.8086 28.6061 34.7169 28.4752C34.799 28.1018 34.9246 27.7285 35.0743 27.3697C35.2096 26.9721 35.3641 26.5891 35.5477 26.2061C35.7023 25.8327 35.8569 25.4545 36.0211 25.0812C36.1467 24.7467 36.253 24.4024 36.3399 24.0533L36.5959 23.8255L37.1321 23.1951C37.1949 22.4533 37.364 21.7164 37.5282 20.9842L37.7263 20.5285L38.0644 20.0339C38.3736 19.68 38.6634 19.3115 38.9919 18.9673C39.4556 18.4436 39.9483 17.9345 40.3396 17.3479L40.6584 16.8339C40.8275 16.4897 41.0014 16.1503 41.1704 15.8061C41.354 15.3891 41.5569 14.9867 41.8225 14.6036C41.8708 14.5551 41.9288 14.5358 42.0013 14.5067C42.1607 14.4291 42.3297 14.3709 42.5181 14.3709L42.6292 14.4146ZM33.3691 7.03999L33.4851 7.42303L33.4271 7.87879L33.2291 8.33455L32.6542 9.23152L32.1615 9.80364L31.9248 9.95879L31.5674 10.4533C31.1133 11.2145 30.7655 12.0291 30.3791 12.8145C30.0168 13.4497 29.5772 14.0412 29.2101 14.6618L29.0507 15.0788C28.872 15.3358 28.698 15.5927 28.5145 15.84C27.9735 16.5479 27.3842 17.217 26.8721 17.9345L26.5147 18.4873L26.3939 18.7346L26.3166 18.9818C26.2152 19.1321 26.0944 19.2679 25.9785 19.3988C25.7708 19.68 25.5872 19.9661 25.4036 20.257L25.2829 20.5236C25.2297 20.8339 25.2442 21.1297 25.2442 21.44C25.2442 22.24 25.2442 23.0449 25.2442 23.84C25.0752 24.0049 24.8385 24.1212 24.6114 24.1648C24.3989 24.1115 24.0414 24.0436 23.94 23.84L23.9786 23.5733L24.138 23.0206C24.1622 22.8558 24.1912 22.6861 24.2588 22.5261C24.3216 22.3709 24.3747 22.2351 24.4182 22.0703C24.4182 21.2703 24.4182 20.4703 24.4182 19.6703L24.4762 19.3261L24.6549 18.9236L25.1911 18.0461C25.4954 17.6145 25.8287 17.183 26.0413 16.6933L26.1814 16.4267L26.7755 15.6461C27.2102 15.1418 27.6547 14.6279 28.0411 14.0848L28.2585 13.5903C28.4614 13.1927 28.7464 12.8339 29.012 12.4655C29.2584 12.1358 29.4999 11.7964 29.7414 11.457C29.925 11.1515 30.1424 10.8849 30.1955 10.5212L30.2535 10.3903C30.751 9.7503 31.2244 9.10545 31.6205 8.38787L31.6785 8.15999C31.8089 8.03393 31.9635 7.91757 32.1132 7.79636C32.519 7.52969 32.9102 7.23393 33.3691 7.03999ZM30.6351 5.6097C30.3549 5.88122 30.1714 6.19152 29.9636 6.50667L28.9347 8.08727C28.6449 8.58666 28.3454 9.0909 28.0073 9.55636C27.1523 10.7927 26.4084 12.0921 25.592 13.3479C25.1283 13.8667 24.6549 14.3612 24.167 14.8558L23.9303 15.1612L23.713 15.5055L23.5149 15.8885L23.3362 16.3442L23.1768 16.8776L23.0367 17.4885L22.858 19.0158C22.8483 19.457 22.858 19.9127 22.8193 20.3491C22.7903 20.6788 22.7517 21.0133 22.7227 21.3382C22.7227 21.6145 22.7517 21.8861 22.8 22.1576C22.8483 22.303 22.9063 22.4533 22.9594 22.5939C22.9836 22.7152 23.027 22.8364 23.056 22.9576L23.1961 22.9964L23.3941 22.8994C23.3941 21.5079 23.6308 20.1212 23.6308 18.7248C23.713 18.1721 23.7951 17.6194 23.9062 17.0667C24.0559 16.7224 24.2395 16.4121 24.4617 16.0921C24.5825 15.9079 24.7129 15.7236 24.8192 15.52C25.3505 14.9188 25.9688 14.3951 26.563 13.8424L26.6402 13.7455L26.7175 13.5564L27.2296 12.9067C27.6595 12.4218 28.0749 11.9418 28.4372 11.4036C28.5097 11.1806 28.5725 10.9479 28.6353 10.7152C28.7995 10.24 29.0024 9.76485 29.2294 9.30424L29.3888 9.05697C29.5144 8.93575 29.6545 8.81939 29.7849 8.69333C30.0119 8.47515 30.2148 8.23758 30.4177 7.99031C30.6013 7.68485 30.78 7.39393 30.9104 7.05454L30.9684 6.80728L30.9877 6.56L30.9684 6.31272L30.9104 6.06546L30.8138 5.83758L30.6351 5.6097ZM27.8479 4.99879C27.5629 5.13454 27.3503 5.35758 27.1571 5.5903L27.017 5.87636C26.8769 6.36606 26.79 6.86545 26.6402 7.34545C26.4374 7.76727 26.1524 8.13576 25.8481 8.4897L25.5341 8.92606L25.3553 9.3091C25.2636 9.65819 25.2491 10.0267 25.1573 10.3758L25.0607 10.4921C24.9013 10.5891 24.7419 10.6715 24.5873 10.7588C24.4424 10.9333 24.3989 11.1079 24.3313 11.3115C24.2685 11.4861 24.2008 11.5782 24.0559 11.6945C23.7999 11.8012 23.5294 11.8449 23.2831 11.9612L23.085 12.1309C23.0319 12.2667 22.998 12.4024 22.9449 12.5285C22.6937 12.7709 22.3314 12.9842 22.1527 13.2703C21.9595 13.5079 21.7952 13.7551 21.6165 13.9927C21.4668 14.2836 21.2977 14.5503 21.2397 14.8703C21.2784 15.1176 21.3364 15.36 21.4185 15.5927C21.4185 16.6061 21.4426 17.6145 21.4958 18.623L21.5344 18.7394C21.6262 18.8461 21.718 18.9333 21.7711 19.0642C21.7131 19.1806 21.6117 19.2388 21.5151 19.3115C21.4233 19.4279 21.4378 19.4958 21.4378 19.6364C21.4378 19.8788 21.5247 20.0824 21.7759 20.1309L21.8967 20.0727C22.0126 19.9418 22.1527 19.8012 22.1527 19.617C22.1527 19.5054 22.1382 19.3648 22.1141 19.2533C22.0658 19.0642 22.1092 18.8558 22.1527 18.6618C22.2445 18.3951 22.3073 18.1042 22.3701 17.823V17.3673C22.3314 17.0618 22.3121 16.7612 22.2686 16.4509C22.2493 16.1551 22.2493 15.8594 22.2493 15.5539C22.2831 15.3018 22.2735 15.1661 22.486 15.0012C22.6647 14.8606 22.8725 14.7588 23.0415 14.5988C23.0705 14.4533 23.1188 14.3321 23.2009 14.1964L23.597 13.7794C24.1091 13.3236 24.6549 12.8776 25.1186 12.3685C25.3553 12.1067 25.5872 11.8303 25.8094 11.5491C25.9447 11.3552 26.1089 11.1855 26.1089 10.9382C26.1717 10.6909 26.2538 10.4582 26.3456 10.2158C26.4229 10.0897 26.505 9.96364 26.5823 9.83758C26.6741 9.79394 26.7803 9.75999 26.8818 9.72121L27.0025 9.51272C27.0508 9.33333 27.0315 9.1394 27.1233 8.96001L27.2006 8.73213C27.36 8.42667 27.5532 8.13576 27.7368 7.83515L27.9735 7.39879C28.0797 7.15637 28.1136 7.06908 28.0121 6.82666L27.9928 6.56C28.0894 6.19636 28.5386 6.11394 28.7077 5.79878C28.7077 5.53697 28.6546 5.34788 28.4324 5.18788L28.3551 5.09091L28.215 5.01333L27.8479 4.99879ZM23.6695 4.73213C23.3797 4.95516 23.1961 5.26061 23.1381 5.6097C23.1381 5.72606 23.1575 5.84242 23.1575 5.95394L23.0415 6.05091L22.7034 6.18182L22.6068 6.27879L22.4474 6.60363C22.3894 6.77333 22.3314 6.93819 22.2686 7.09819L22.1092 7.68969L22.0706 7.97576C22.0271 8.24243 21.9064 8.51879 21.7952 8.75636C21.6358 9.05697 21.4571 9.34787 21.4571 9.69212C21.4233 9.85696 21.3943 10.0218 21.3605 10.1867C21.3605 10.2885 21.3364 10.3418 21.3025 10.4339C21.1142 10.8897 20.9354 11.3455 20.7277 11.7867C20.5925 12.1018 20.3992 12.4267 20.3316 12.7564C20.3316 13.0182 20.2833 13.2849 20.235 13.537L20.1964 13.5952L19.9403 13.7455C19.9403 13.8521 19.921 13.9491 19.921 14.0509C19.9403 14.1624 19.9403 14.2691 19.9597 14.3758L19.9983 14.5649L20.7084 14.8509C20.834 14.7782 20.9258 14.7345 20.9644 14.5842C21.0127 14.3612 20.9837 14.1236 21.0417 13.9006C21.3847 13.0764 21.8339 12.2812 22.3073 11.52C22.3991 11.3842 22.4764 11.3067 22.6261 11.2145C23.0753 11.0012 23.5729 10.9285 23.9931 10.6424C24.254 10.3952 24.5197 10.1042 24.6839 9.78424C24.853 9.46424 24.824 9.08606 24.824 8.73696C24.8047 8.64484 24.7853 8.54787 24.766 8.45091C24.7322 8.29091 24.7805 8.21334 24.8626 8.06789C25.0703 7.94182 25.278 7.84 25.278 7.57333C25.2442 7.44727 25.2104 7.32121 25.1814 7.1903C25.0752 7.03514 24.9737 6.98667 24.7853 6.94303L24.6066 7.02061L24.4472 7.13697C24.2974 7.32121 24.1912 7.46181 24.1525 7.68969L24.0752 8.18424L23.7178 8.88727C23.5681 9.13939 23.4038 9.4594 23.143 9.6097L23.0415 9.62908C22.9497 9.5709 22.9594 9.50789 22.9401 9.40122C22.9401 9.17819 23.0705 8.99879 23.1961 8.8097C23.312 8.64486 23.4714 8.4703 23.4714 8.25697C23.4714 8.16485 23.4328 8.08728 23.4135 7.99031L23.3169 7.58788L23.3555 7.49091C23.4618 7.3697 23.5197 7.28243 23.5729 7.12728C23.5729 6.7394 23.4956 6.35636 23.5536 5.96363L23.6115 5.90545L23.8675 5.82787L23.9448 5.7503C24.0559 5.50787 24.1284 4.73213 23.6695 4.73213ZM12.6511 24.1745L12.511 24.2133C12.2695 24.3976 12.1439 24.6352 11.999 24.8824L11.8396 24.9794L11.5449 24.9406C11.4773 24.8727 11.4435 24.7855 11.3662 24.7127C11.1971 24.7127 11.0329 24.7321 10.8735 24.7709C10.8107 24.7709 10.7672 24.7661 10.7141 24.7903C10.4677 24.8727 10.603 25.1539 10.6561 25.3236C10.7672 25.4061 10.7624 25.4012 10.8928 25.4012C11.0908 25.4012 11.2792 25.3236 11.4869 25.3236C11.6319 25.2558 11.9024 25.1006 12.0618 25.1539L12.3371 25.3236L12.8926 25.4012L13.3467 25.3236L13.4433 25.2461C13.5399 25.057 13.5737 24.9212 13.5013 24.7127L13.2646 24.3685C13.1873 24.3345 13.1148 24.2958 13.0472 24.2521C12.9168 24.2182 12.7767 24.1745 12.6511 24.1745ZM36.2143 8.24242L36.0936 8.52848C36.0066 8.87273 35.9003 9.20728 35.7989 9.53698C35.6105 9.75516 35.4173 9.97334 35.2241 10.1867C35.0647 10.4145 35.0212 10.6521 34.9101 10.8897C34.8231 11.0739 34.7458 11.2582 34.6734 11.4424L34.5961 11.7673C34.427 11.9515 34.3014 12.097 34.2386 12.3394C34.0937 12.5285 34.0019 12.7418 33.9633 12.9697C33.9633 13.0133 33.9247 13.0424 33.9247 13.0861C33.7894 13.217 33.6203 13.3042 33.4899 13.4303C33.3498 13.5661 33.2242 13.6727 33.1131 13.8327C33.0552 13.8909 33.0069 13.9539 32.9537 14.0024C32.8909 14.0024 32.8378 13.9976 32.7943 14.0412C32.7943 14.2206 32.7991 14.5455 32.6349 14.6521C32.5528 14.6764 32.4465 14.6958 32.3789 14.7297C32.3016 14.88 32.1808 15.0836 32.1808 15.2436C32.1325 15.4521 32.0697 15.6364 32.0021 15.8352C31.8717 15.9224 31.7171 15.9612 31.5867 16.0436C31.3693 16.3588 31.0215 16.5964 30.8959 16.96C30.8283 17.0958 30.7848 17.2315 30.7172 17.3576C30.6158 17.6533 30.6399 17.9297 30.6399 18.2351C30.6592 18.3418 30.6689 18.4242 30.7172 18.5212C31.0988 18.6133 31.3645 18.1527 31.5867 17.9297L31.8234 17.7406C32.0746 17.4642 32.3789 17.2218 32.6542 16.96C32.9441 16.8242 33.2097 16.6061 33.4658 16.4073C33.6638 16.1551 33.6155 15.8158 33.7604 15.5297C33.9102 15.3552 34.0744 15.1806 34.2145 14.9964L34.2338 14.9188C34.3594 14.7976 34.4946 14.6521 34.5913 14.497C34.5913 14.2594 34.7748 13.9782 34.8666 13.7551C34.8908 13.6436 34.9053 13.5515 34.9053 13.4303C34.9874 13.3527 35.0453 13.2752 35.1419 13.2024C35.2627 13.0909 35.4221 12.9891 35.4994 12.8388C35.683 12.5915 35.8762 12.3345 36.0549 12.0776C36.2336 11.7964 36.4414 11.5249 36.5476 11.2C36.6974 10.9576 36.8713 10.72 37.0645 10.497C37.2384 10.4533 37.4171 10.3903 37.6007 10.3467C37.7311 10.1042 37.8953 9.86182 38.0741 9.64364C37.8567 9.52243 37.6683 9.35757 37.4606 9.22667C37.1804 8.96 36.8519 8.74182 36.5476 8.50425C36.4414 8.40243 36.3351 8.31515 36.2143 8.24242ZM21.3557 20.8194L21.4523 20.8776L21.631 21.1442L21.7711 21.2218L21.8484 21.2994C22.0126 21.3576 22.1382 21.4061 22.2831 21.5079V21.7939C22.2203 22.0073 22.0996 22.0218 21.887 22.0218C21.7083 22.0509 21.5489 22.0073 21.375 21.983L21.1769 21.8861L21.1383 21.7891C21.2253 21.6485 21.3074 21.5321 21.3557 21.3721C21.2929 21.28 21.2156 21.2364 21.1383 21.1636V21.0667L21.2397 20.8582L21.3557 20.8194ZM25.8867 4.58182L25.6886 4.62061L25.394 4.86788C25.2153 5.16849 25.2153 5.47394 25.2153 5.80364C25.2732 5.98303 25.3022 6.28848 25.5727 6.2206L25.7708 6.05091C25.906 5.85697 26.0654 5.6 26.1282 5.36242C26.2828 5.06182 26.1958 4.86788 25.9881 4.62061L25.8867 4.58182ZM31.4273 4.90666L32.0987 5.34788C32.2726 5.55636 32.432 5.77939 32.5914 5.99757C32.6639 6.08 32.6832 6.10908 32.7074 6.20605C33.002 6.48727 33.4078 6.58425 33.7942 6.70061L34.485 7.00607C35.0067 7.30667 35.4753 7.65091 35.9486 8.01454C35.7458 8.13091 35.5719 8.28122 35.3738 8.39758L35.3545 8.64484L35.2579 8.89212L35.0985 9.1006L34.6637 9.46424L34.2676 9.67273L34.0696 9.73091C33.8232 10.0267 33.6928 10.4679 33.6542 10.8364C33.5382 11.2049 33.3836 11.5394 33.1808 11.8642L33.1035 12.0145L32.9634 12.1503C32.6639 12.3345 32.3596 12.5042 32.0552 12.6642L31.8958 12.7806C31.8379 12.8921 31.8186 12.9309 31.7944 13.0473C31.6688 13.4061 31.5529 13.7697 31.4563 14.1333L31.0408 14.7442C30.6979 15.1467 30.3404 15.5297 30.0506 15.9661L29.954 16.3491C29.7463 16.8679 29.5144 17.3867 29.2825 17.8909C29.2004 18.1188 29.1425 18.3321 29.0845 18.56L28.9444 18.8655L28.0169 20.2376L27.8769 20.5236L27.7754 20.9988L27.0847 22.7879L26.988 23.1515L26.9494 23.4958L26.988 24.1261C27.0847 24.9115 27.1861 25.7018 27.1861 26.4873C27.1861 27.2582 27.2054 28.0291 27.3069 28.7952C27.3745 29.0764 27.4759 29.3091 27.6257 29.5564L27.7464 29.6727C27.959 29.6727 28.3213 29.6921 28.5193 29.5952C28.4807 29.1733 28.4324 28.7709 28.3406 28.3539C28.2826 28.0242 28.2778 27.6945 28.2005 27.3648C28.0942 27.1321 27.9928 26.8945 27.8817 26.6618L27.8237 26.2982C27.8431 26.1139 27.8865 25.9345 27.9203 25.7455C28.0314 25.4788 28.1136 25.217 28.157 24.9261C28.1812 24.6642 28.244 24.4218 28.2971 24.1648C28.4565 23.7382 28.5773 23.3018 28.6546 22.8509C28.8478 22.4436 29.1231 22.0655 29.3888 21.6873L29.4854 21.4788L29.5434 21.1151L29.7028 20.543C29.8574 20.1503 30.0361 19.7527 30.1569 19.3406C30.3163 19.3406 30.4708 19.3164 30.6303 19.3018C30.9394 19.3018 31.2292 19.2436 31.5384 19.2048C31.7992 19.1418 32.0794 19.0691 32.3499 19.0352L32.4707 18.9964L32.8475 18.6715C33.2146 18.2885 33.572 17.8764 33.915 17.4691C34.1275 17.0618 34.4705 16.7467 34.8038 16.4218C35.0985 16.1406 35.3931 15.8497 35.6926 15.5636L35.7699 15.3552L37.4703 13.2606L37.5475 13.0909C37.6345 12.5964 37.9147 12.16 38.1224 11.6994C38.417 11.1758 38.7117 10.6376 38.9919 10.0994L39.0112 10.0412C39.3107 10.2109 39.615 10.3903 39.9193 10.5551C40.127 10.7006 40.3734 10.8315 40.5521 11.0109L40.4314 11.2776C40.2864 11.4182 40.156 11.5636 40.0159 11.6945C39.9386 11.7576 39.842 11.8642 39.7599 11.903C39.7937 12.0582 39.7261 12.1939 39.6826 12.3394C39.4894 12.6788 39.3203 13.0279 39.1078 13.3479C38.9194 13.4836 38.7262 13.6194 38.533 13.7503C38.1513 14.3903 37.678 14.9915 37.4075 15.6751C37.2867 16.3151 37.0693 16.9842 36.8133 17.5806L36.5959 17.8279C36.2675 18.1236 35.939 18.4 35.5864 18.6667L34.9342 19.2388C34.7603 19.4473 34.6009 19.6412 34.4608 19.8691C34.3159 20.0873 34.2 20.3103 34.0841 20.5333C34.0068 20.6836 33.9391 20.8145 33.9053 20.9697C33.6542 21.0909 33.3981 21.1927 33.1518 21.3139C32.7364 21.8909 32.263 22.4291 31.8234 22.9915L31.5867 23.3552L31.4273 23.6606L31.3307 24.1164C31.1278 24.6012 30.8959 25.0667 30.6592 25.5273L30.3839 26.2303L30.3018 26.6667L29.5096 27.9612L29.3888 28.2279L29.3502 28.6303C29.4371 29.0667 29.5241 29.4788 29.7076 29.8861C29.8477 29.9539 30.1714 29.8861 30.3404 29.8861C30.4902 29.4497 30.6544 29.0327 30.7365 28.5721C30.9442 28.4897 31.1471 28.4315 31.35 28.3249C31.408 28.0582 31.4708 27.7818 31.5094 27.5055C31.693 27.1515 32.2436 27.0836 32.3789 26.6861C32.4272 26.4097 32.5383 26.1479 32.5963 25.8667L32.6542 25.5806L32.775 25.3139C33.0069 24.9454 33.2484 24.5673 33.5092 24.2085L33.6252 24C33.7266 23.6121 34.0116 23.2921 34.258 22.9721C34.4802 22.6521 34.7072 22.3515 34.8908 21.9976C35.34 21.5224 35.8037 21.0473 36.2578 20.5673C36.3689 20.2861 36.3882 19.9806 36.4752 19.6897C36.6974 19.2582 37.0886 18.9285 37.364 18.5261C37.5041 18.4582 37.6538 18.4242 37.7987 18.3564C37.934 18.2982 38.103 18.2497 38.2141 18.1479C38.2383 17.983 38.2576 17.8182 38.2914 17.6533C38.388 17.3139 38.417 16.9697 38.4895 16.6255C38.6586 16.543 38.8325 16.4752 39.0064 16.3782C39.1319 16.3491 39.103 16.3442 39.1464 16.2085C39.5184 15.4958 39.9193 14.783 40.2768 14.0558L41.5424 11.7673C41.6341 11.7673 41.7259 11.7236 41.8177 11.7673L41.8563 11.9758C41.9433 12.2036 41.9964 12.4364 42.0737 12.6642L42.1124 12.9891C42.2428 13.0861 42.4215 13.1006 42.5858 13.1394C42.8176 13.3624 43.0108 13.6242 43.2186 13.8618C43.2862 14.0218 43.3248 14.1915 43.378 14.3564C43.5084 14.7054 43.6098 15.0642 43.6968 15.423C43.5277 15.7042 43.2958 15.9612 43.0833 16.2036L43.0253 16.32L42.9867 16.6448C42.948 17.1345 42.8514 17.6097 42.7886 18.0945L42.6679 18.4388L42.4312 18.7636L42.0737 19.1079C41.581 19.5103 41.1028 19.9079 40.6487 20.3442C40.499 20.6012 40.3106 20.8339 40.1319 21.0667C39.9048 21.4061 39.673 21.7358 39.4604 22.0751L39.3203 22.3806C39.1802 22.9673 39.0015 23.5248 38.7648 24.0776C38.6875 24.257 38.6151 24.4412 38.5281 24.6109L38.5088 24.8776L38.3301 25.4497L38.0113 26.08C37.5475 26.8364 37.0693 27.5879 36.6249 28.3491C36.4897 28.6448 36.3786 28.9212 36.2868 29.2267L36.2481 29.4933C36.0549 29.7406 35.8907 30.0024 35.7119 30.2545C35.6008 30.4727 35.5284 30.6521 35.4753 30.8849C35.654 31.0594 36.0211 30.8849 36.2481 30.8849C36.6636 30.2449 37.1418 29.6194 37.4944 28.9406L37.591 28.5576L37.7311 28.2715C38.132 27.6703 38.5619 27.0836 38.9387 26.463C39.2382 25.8473 39.4314 25.1976 39.673 24.5576C39.7841 24.1794 39.8855 23.8012 39.9676 23.4133L39.9869 23.1079L40.0256 22.9382C40.2091 22.5261 40.47 22.143 40.7164 21.7551C40.8516 21.5515 40.982 21.3673 41.0545 21.1249C41.1801 21.0473 41.3153 20.9745 41.4506 20.897L42.2621 20.4412H42.3201C42.2814 20.6206 42.1848 20.7806 42.1027 20.9358C41.2236 22.7055 40.3396 24.4654 39.4701 26.2351C38.9049 27.36 38.3108 28.4703 37.7504 29.5903C37.2867 30.4533 36.8133 31.3115 36.3061 32.1454L36.0694 32.5818L35.6733 33.4982C35.3835 34.2691 35.1323 35.0642 34.9632 35.8594C34.8521 36.2473 34.7507 36.6303 34.6637 37.023C34.6009 37.2751 34.543 37.5224 34.4657 37.7649L34.3691 37.9345L31.1423 34.7346C30.9877 34.5406 30.809 34.3709 30.6496 34.1818C30.3404 33.8812 30.0409 33.5709 29.7608 33.2461C29.3888 32.8873 29.0458 32.4945 28.7125 32.1018C28.5725 31.9515 28.4614 31.8206 28.3551 31.6461C28.0314 31.3406 27.7416 30.9867 27.4469 30.657C27.2924 30.4824 27.1185 30.3127 27.0122 30.1042L26.9736 29.9152C26.6837 29.3964 26.3311 28.9115 26.0413 28.3927L25.9012 28.0873C25.848 27.7285 25.7853 27.3745 25.6838 27.0206C25.6403 26.8315 25.6162 26.6424 25.5631 26.4485L25.3263 26.0461C25.0607 25.7358 24.7902 25.44 24.4375 25.2267C24.2636 25.2267 24.0897 25.2267 23.9207 25.2267C23.5197 24.9358 23.3603 24.5479 23.2106 24.1018L22.9353 23.777C22.5585 23.4473 22.1286 23.1564 21.631 23.0352H19.892L19.7326 23.0933L19.3365 23.4182C19.1385 23.6267 18.9452 23.8351 18.7424 24.0291L18.5443 24.16L18.3849 24.2182C18.1917 24.2182 17.9985 24.2424 17.8101 24.257C17.5009 24.257 17.2014 24.2812 16.8971 24.3151C16.5976 24.3151 16.3754 24.5479 16.187 24.7321C15.9648 24.9455 15.7619 25.1636 15.5349 25.3624L15.3369 25.4982C15.1388 25.5612 14.9601 25.5806 14.762 25.6145C14.279 25.6824 13.7959 25.7212 13.3177 25.7842H13.1003C12.6366 25.9636 12.3178 26.337 11.8347 26.4679C11.6319 26.4679 11.4531 26.4921 11.2599 26.5261C10.9314 26.5794 10.5933 26.6085 10.3083 26.7733C10.1489 26.9285 10.0716 27.0788 9.97017 27.2679C9.81077 27.6024 9.65135 27.937 9.53542 28.2764L9.43881 28.4655C9.32771 28.4897 9.23594 28.5527 9.13933 28.5964C8.9461 28.6642 8.76254 28.7224 8.56449 28.7467C7.77712 28.7467 6.99457 28.5915 6.23135 28.4412C5.99949 28.3733 5.77245 28.3345 5.54059 28.2521C5.09618 28.1309 4.73389 27.8206 4.3716 27.5491C4.01897 27.2291 3.67602 26.9042 3.34271 26.56L2.86932 25.9297C2.74373 25.4449 2.63263 24.9503 2.63263 24.4412C2.65195 24.2521 2.64711 24.063 2.67127 23.8691C2.68576 23.7285 2.68092 23.5879 2.7099 23.4521C2.7099 23.3067 2.88381 23.2146 2.98525 23.1273C3.20745 22.9964 3.43932 22.8752 3.65669 22.7442L3.83542 22.5358C3.92237 22.3515 3.97067 22.2012 4.01415 22.0024C4.04313 21.8618 4.09144 21.7261 4.11076 21.5806C4.43441 21.0764 4.79669 20.6012 5.1783 20.1309C5.49229 19.7915 5.81593 19.4618 6.12991 19.1224C6.56949 18.7006 7.01389 18.2739 7.45347 17.8473C7.97033 17.4109 8.46787 16.9503 8.97507 16.4945L9.33254 16.0776C9.5161 15.7624 9.70448 15.457 9.86872 15.1224L10.2455 14.4194C10.2793 14.3564 10.2986 14.2642 10.3276 14.1915C10.4194 13.9539 10.487 13.7018 10.5257 13.4497L10.9604 12.5139C11.0522 12.1552 11.3662 11.8739 11.5932 11.5782L11.6947 11.4812C11.7768 11.3212 11.9265 11.2049 12.0714 11.0788C12.5207 10.72 13.0037 10.3709 13.3563 9.91516C13.4771 9.68243 13.651 9.49333 13.7911 9.26545L13.5158 8.90181C12.9892 8.36363 12.4144 7.87879 11.8347 7.39879C11.4435 7.04 11.0184 6.69575 10.7479 6.23514L10.5498 5.87151C10.4677 5.61939 10.3856 5.36728 10.3131 5.11031C10.2503 4.67879 10.231 4.25212 10.2745 3.81576C10.2986 3.59757 10.3083 3.41817 10.3952 3.20484C10.4822 3.16605 10.6126 3.16121 10.7141 3.14666C11.144 3.10787 11.5884 3.12242 12.0183 3.16606C12.4772 3.29697 12.9023 3.40848 13.3853 3.45212C13.8152 3.55394 14.2355 3.73818 14.6509 3.89333L14.9069 3.95151L15.163 3.97091L15.3803 3.91273L15.5397 3.76243L15.6605 3.55393C15.7475 3.26787 15.8247 2.96242 15.9358 2.67636L16.0131 2.61818H16.3899C16.728 2.58424 17.0758 2.60849 17.4188 2.5794C17.7038 2.5794 17.984 2.58424 18.269 2.56C18.6071 2.56 18.9404 2.56 19.2786 2.56C19.9886 2.56 20.6987 2.46302 21.4136 2.46302L21.7131 2.44364C21.8194 2.34182 21.9305 2.20606 22.0706 2.13818L23.2396 2.19636C23.4135 2.21091 23.5922 2.2109 23.7758 2.23514C24.0994 2.30302 24.4762 2.3709 24.766 2.5406C24.8868 2.57939 24.9254 2.66666 24.9834 2.76848C25.1525 3.03515 25.3119 3.31636 25.4954 3.56848L25.6355 3.68485L25.7563 3.74303C25.8239 3.70909 25.9157 3.6897 25.993 3.66545C26.2925 3.54909 26.5871 3.44727 26.9252 3.49575L27.0653 3.55393C27.1909 3.65575 27.3262 3.72849 27.4614 3.82061C27.6112 3.92243 27.703 3.99031 27.8962 3.99031C28.1522 3.99031 28.4082 3.97091 28.6691 3.97091C28.8623 4.04364 29.0265 4.17939 29.1859 4.31515C29.3067 4.43151 29.442 4.53817 29.5627 4.65939L29.838 4.69818C30.3694 4.72727 30.9056 4.80485 31.4273 4.90666ZM42.6679 22.2303C42.9384 21.9685 43.1558 21.6533 43.4214 21.3721C43.5422 21.183 43.6775 21.0036 43.8175 20.8194C43.948 20.4848 44.1219 20.1648 44.2523 19.8303L44.5276 19.5248L44.7643 19.1612C44.8368 19.0254 44.9044 18.8509 45.0397 18.7636C45.0397 18.6521 44.9672 18.5212 44.9189 18.4194C44.7595 18.0848 44.5663 17.7648 44.3441 17.4642C44.1363 17.2606 43.9673 17.0764 43.8707 16.7952L43.634 17.9394C43.5663 18.2691 43.576 18.5842 43.576 18.9091C43.5519 19.0303 43.5664 19.1418 43.5374 19.2533C43.32 19.4618 43.0253 19.6121 42.7838 19.7867L42.7452 19.903L42.7838 20.1697C42.8466 20.2909 42.948 20.4849 43.0785 20.5527L43.2186 20.5915L43.2765 20.7079L43.2572 20.897L43.1799 21.1249C42.9819 21.4788 42.8224 21.857 42.6679 22.2303Z" fill="black"/>
<path fill-rule="evenodd" clip-rule="evenodd" d="M49.7494 47.9464V40.7949H51.8845L53.2322 45.7016L54.4978 40.7949H56.715V47.9464H55.3673L55.3287 42.3658L53.865 47.9464H52.5801L51.1551 42.3658L51.0971 47.9464H49.7494ZM43.3393 44.6494H48.0104V43.0591H43.3393V44.6494ZM35.3835 47.9464L37.8567 44.2131L35.6395 40.7997H37.2819L38.7069 43.0058L40.0932 40.7997H41.8129L39.5377 44.2131L42.0303 47.9464H40.3299L38.7069 45.4446L37.0645 47.9464H35.3835ZM28.9348 40.7949H30.3598V45.401L33.1711 40.7949H34.7169V47.9464H33.2919V43.3791L30.4419 47.9464H28.9396V40.7949H28.9348ZM23.6357 42.0022V44.0337H24.4231C24.9931 44.0337 25.3699 43.9949 25.5631 43.9222C25.7563 43.8494 25.9012 43.7282 26.0123 43.5682C26.1186 43.4082 26.1765 43.224 26.1765 43.0106C26.1765 42.7488 26.0993 42.5355 25.9495 42.3658C25.7998 42.1961 25.6017 42.0894 25.3698 42.0506C25.1959 42.0167 24.853 42.0022 24.3313 42.0022H23.6357ZM22.1962 47.9464V40.79H24.5052C25.3795 40.79 25.9543 40.8288 26.22 40.8967C26.6306 41.0034 26.9736 41.2361 27.2489 41.5949C27.5243 41.9537 27.6643 42.4191 27.6643 42.9913C27.6643 43.4325 27.587 43.8009 27.4228 44.1015C27.2634 44.4022 27.0605 44.6349 26.819 44.8094C26.5726 44.9791 26.3263 45.0906 26.0751 45.1488C25.7321 45.2167 25.2346 45.2506 24.5776 45.2506H23.6405V47.9464H22.1962ZM17.7135 47.9464V41.9876H15.5977V40.7949H21.2977V41.9876H19.1433V47.9464H17.7135ZM6.13959 40.7949H7.56459V46.7537H9.62239V40.7949H11.0474V46.7537H13.2646V40.7949H14.6896V47.9464H6.13959V40.7949Z" fill="black"/>
<path fill-rule="evenodd" clip-rule="evenodd" d="M52.3289 2.21578V3.60729H52.8361C53.3916 3.60729 53.7588 3.57819 53.9375 3.52486C54.0679 3.48607 54.179 3.4085 54.2611 3.28729C54.3481 3.17092 54.3867 3.04487 54.3867 2.91396C54.3867 2.72487 54.3143 2.55516 54.1694 2.4194C54.0244 2.28365 53.6621 2.21578 53.0777 2.21578H52.3289ZM51.8121 1.78911H53.3578C53.9182 1.78911 54.3191 1.89092 54.5606 2.0994C54.8021 2.30304 54.9229 2.56002 54.9229 2.87032C54.9229 3.19517 54.7925 3.46668 54.5413 3.68487C54.3577 3.84002 54.0872 3.94668 53.7346 4.00002C53.894 4.07759 54.0051 4.14548 54.0727 4.20366C54.1404 4.26184 54.2418 4.3879 54.3819 4.58184C54.522 4.77093 54.6282 4.93093 54.7007 5.06183L55.1065 5.78911H54.4737L54.0872 5.12971C53.7926 4.61577 53.5655 4.31032 53.4158 4.21335C53.2612 4.11153 53.01 4.06305 52.6574 4.06305H52.3289V5.79396H51.8121V1.78911ZM56.4687 3.91758C56.4687 3.00607 56.1499 2.23031 55.5074 1.58546C54.8698 0.940616 54.0921 0.62062 53.1839 0.62062C52.2758 0.62062 51.5029 0.945464 50.8653 1.58546C50.2276 2.23031 49.904 3.00607 49.904 3.91758C49.904 4.82425 50.2276 5.60487 50.8653 6.24487C51.5029 6.88971 52.2758 7.20971 53.1839 7.20971C54.0921 7.20971 54.8698 6.88971 55.5074 6.24487C56.1499 5.60487 56.4687 4.8291 56.4687 3.91758ZM56.8793 3.91758C56.8793 4.94061 56.5218 5.81334 55.7972 6.54062C55.0775 7.26789 54.208 7.62669 53.1887 7.62669C52.1695 7.62669 51.3 7.26304 50.5755 6.54062C49.8557 5.81819 49.4934 4.94061 49.4934 3.91758C49.4934 2.88971 49.8557 2.01699 50.5755 1.29457C51.3 0.572143 52.1695 0.208496 53.1887 0.208496C54.208 0.208496 55.0775 0.572143 55.7972 1.29457C56.517 2.02184 56.8793 2.89455 56.8793 3.91758Z" fill="black"/>
</g>
<defs>
<clipPath id="clip0">
<rect width="57" height="48" fill="white"/>
</clipPath>
</defs>
</svg>
