<svg width="48" height="48" viewBox="0 0 48 48" fill="none" xmlns="http://www.w3.org/2000/svg">
<path d="M24 28C26.2091 28 28 26.2091 28 24C28 21.7909 26.2091 20 24 20C21.7909 20 20 21.7909 20 24C20 26.2091 21.7909 28 24 28Z" stroke="#08A652" stroke-width="1.5" stroke-linecap="round" stroke-linejoin="round"/>
<path d="M32.48 15.52C33.5957 16.6345 34.4808 17.9579 35.0847 19.4147C35.6886 20.8715 35.9994 22.433 35.9994 24.01C35.9994 25.587 35.6886 27.1485 35.0847 28.6053C34.4808 30.0621 33.5957 31.3855 32.48 32.5M15.52 32.48C14.4043 31.3655 13.5192 30.0421 12.9153 28.5853C12.3114 27.1285 12.0006 25.567 12.0006 23.99C12.0006 22.413 12.3114 20.8515 12.9153 19.3947C13.5192 17.9379 14.4043 16.6145 15.52 15.5M38.14 9.86C41.8894 13.6106 43.9957 18.6967 43.9957 24C43.9957 29.3033 41.8894 34.3894 38.14 38.14M9.86 38.14C6.11058 34.3894 4.00427 29.3033 4.00427 24C4.00427 18.6967 6.11058 13.6106 9.86 9.86" stroke="#08A652" stroke-width="1.5" stroke-linecap="round" stroke-linejoin="round"/>
</svg>
