<svg width="32" height="32" viewBox="0 0 32 32" fill="none" xmlns="http://www.w3.org/2000/svg">
<path d="M16 3.33301V7.0585M16 28.6663H22.6667M16 28.6663H9.33333M16 28.6663V7.0585M16 7.0585H12.9998C12.3636 7.0585 11.7575 7.32948 11.3333 7.8036V7.8036C10.9091 8.27771 10.3031 8.54869 9.66686 8.54869H4M16 7.0585H19.0002C19.6364 7.0585 20.2425 7.32948 20.6667 7.8036V7.8036C21.0909 8.27771 21.697 8.54869 22.3331 8.54869H28" stroke="#08A652" stroke-width="1.5" stroke-linecap="round" stroke-linejoin="round"/>
<path d="M3.19809 19.4741L6.99998 10.4759L10.8019 19.4741C11.1501 20.2982 10.5451 21.2106 9.65043 21.2106H4.34953C3.45489 21.2106 2.8499 20.2982 3.19809 19.4741Z" stroke="#08A652" stroke-width="1.5"/>
<path d="M21.1981 19.4741L25 10.4759L28.8019 19.4741C29.1501 20.2982 28.5451 21.2106 27.6504 21.2106H22.3495C21.4549 21.2106 20.8499 20.2982 21.1981 19.4741Z" stroke="#08A652" stroke-width="1.5"/>
</svg>
