<svg width="32" height="32" viewBox="0 0 32 32" fill="none" xmlns="http://www.w3.org/2000/svg">
<path d="M22.6667 28V25.3333C22.6667 23.9188 22.1048 22.5623 21.1046 21.5621C20.1044 20.5619 18.7478 20 17.3333 20H6.66667C5.25218 20 3.89562 20.5619 2.89543 21.5621C1.89524 22.5623 1.33333 23.9188 1.33333 25.3333V28" stroke="#08A652" stroke-width="1.5" stroke-linecap="round" stroke-linejoin="round"/>
<path d="M12 14.6667C14.9455 14.6667 17.3333 12.2789 17.3333 9.33333C17.3333 6.38781 14.9455 4 12 4C9.05448 4 6.66667 6.38781 6.66667 9.33333C6.66667 12.2789 9.05448 14.6667 12 14.6667Z" stroke="#08A652" stroke-width="1.5" stroke-linecap="round" stroke-linejoin="round"/>
<path d="M30.6667 28V25.3333C30.6658 24.1516 30.2725 23.0037 29.5485 22.0698C28.8245 21.1358 27.8108 20.4688 26.6667 20.1733" stroke="#08A652" stroke-width="1.5" stroke-linecap="round" stroke-linejoin="round"/>
<path d="M21 4C22.1472 4.29373 23.164 4.96093 23.8902 5.89641C24.6163 6.83189 25.0105 7.98244 25.0105 9.16667C25.0105 10.3509 24.6163 11.5014 23.8902 12.4369C23.164 13.3724 22.1472 14.0396 21 14.3333" stroke="#08A652" stroke-width="1.5" stroke-linecap="round" stroke-linejoin="round"/>
</svg>
